<?xml version="1.0" encoding="utf-8"?>
<!-- Generator: Adobe Illustrator 23.0.1, SVG Export Plug-In . SVG Version: 6.00 Build 0)  -->
<svg version="1.1" id="Vrstva_1" xmlns="http://www.w3.org/2000/svg" xmlns:xlink="http://www.w3.org/1999/xlink" x="0px" y="0px"
	 viewBox="0 0 287 83.14" style="enable-background:new 0 0 287 83.14;" xml:space="preserve">
<style type="text/css">
	.st0{fill:#EF7D00;}
	.st1{fill:#FFFFFF;}
</style>
<g>
	<polygon points="23.5,46.34 23.5,71.03 23.4,71.03 8.04,46.34 0,46.34 0,83.14 7.58,83.14 7.58,58.5 7.68,58.5 22.99,83.14 
		31.08,83.14 31.08,46.34 	"/>
	<g>
		<path d="M52.44,70.1c-1.24,1.08-3.81,1.13-6.08,1.55c-2.27,0.41-4.33,1.24-4.33,3.92c0,2.68,2.11,3.4,4.48,3.4
			c5.72,0,5.93-4.48,5.93-6.13V70.1z M35.54,64.69c0.41-6.8,6.55-8.92,12.53-8.92c5.31,0,11.7,1.19,11.7,7.58v13.87
			c0,2.42,0.26,4.84,0.93,5.93h-7.42c-0.26-0.83-0.46-1.7-0.52-2.58c-2.32,2.42-5.67,3.3-8.97,3.3c-5.1,0-9.07-2.52-9.07-7.99
			c0.1-12.11,18.04-5.62,17.73-11.6c0-3.09-2.16-3.61-4.74-3.61c-2.83,0-4.59,1.13-4.85,4.02H35.54z"/>
		<path d="M76.75,61.29c-4.79,0-6.44,4.17-6.44,8.5c0,4.17,1.91,8.56,6.44,8.56c4.8,0,6.29-4.23,6.29-8.61
			C83.04,65.41,81.49,61.29,76.75,61.29 M83.14,79.74h-0.1c-1.7,2.89-4.64,4.12-8.09,4.12c-8.04,0-11.96-6.85-11.96-14.28
			c0-7.17,3.97-13.82,11.8-13.82c3.14,0,6.24,1.34,7.89,3.97h0.1v-13.4h7.32v36.8h-6.96V79.74z"/>
		<path d="M107.87,52.78h-5.1l4.95-7.32h8.09L107.87,52.78z M110.39,70.1c-1.24,1.08-3.81,1.13-6.08,1.55
			c-2.27,0.41-4.33,1.24-4.33,3.92c0,2.68,2.11,3.4,4.48,3.4c5.72,0,5.93-4.48,5.93-6.13V70.1z M93.49,64.69
			c0.41-6.8,6.54-8.92,12.52-8.92c5.31,0,11.7,1.19,11.7,7.58v13.87c0,2.42,0.26,4.84,0.93,5.93h-7.42
			c-0.26-0.83-0.46-1.7-0.52-2.58c-2.32,2.42-5.67,3.3-8.97,3.3c-5.1,0-9.07-2.52-9.07-7.99c0.1-12.11,18.04-5.62,17.73-11.6
			c0-3.09-2.16-3.61-4.74-3.61c-2.84,0-4.59,1.13-4.85,4.02H93.49z"/>
		<path d="M139.6,65.87c-0.46-3.04-2.27-4.59-5.41-4.59c-4.69,0-6.24,4.74-6.24,8.66c0,3.87,1.49,8.4,6.08,8.4
			c3.45,0,5.36-2.12,5.82-5.41h7.06c-0.98,7.06-5.77,10.93-12.83,10.93c-8.04,0-13.45-5.67-13.45-13.66
			c0-8.3,4.95-14.43,13.61-14.43c6.29,0,12.11,3.3,12.52,10.1H139.6z"/>
	</g>
	<path d="M149.64,56.49h7.32v26.65h-7.32V56.49z M156.96,52.37h-7.32v-6.03h7.32V52.37z"/>
	<g>
		<path d="M177.41,70.1c-1.24,1.08-3.81,1.13-6.08,1.55c-2.27,0.41-4.33,1.24-4.33,3.92c0,2.68,2.11,3.4,4.48,3.4
			c5.72,0,5.93-4.48,5.93-6.13V70.1z M160.5,64.69c0.41-6.8,6.54-8.92,12.52-8.92c5.31,0,11.7,1.19,11.7,7.58v13.87
			c0,2.42,0.26,4.84,0.93,5.93h-7.42c-0.26-0.83-0.46-1.7-0.52-2.58c-2.32,2.42-5.67,3.3-8.97,3.3c-5.1,0-9.07-2.52-9.07-7.99
			c0.1-12.11,18.04-5.62,17.73-11.6c0-3.09-2.16-3.61-4.74-3.61c-2.83,0-4.59,1.13-4.85,4.02H160.5z"/>
	</g>
	<rect x="203.9" class="st0" width="83.11" height="83.14"/>
	<g>
		<path class="st1" d="M236.49,75.1c-1.18,0.77-2.45,1.15-3.82,1.15c-2.16,0-3.43-1.44-3.43-3.36c0-2.58,2.38-3.96,7.28-4.51v-0.64
			c0-0.84-0.64-1.33-1.81-1.33c-1.17,0-2.13,0.47-2.82,1.33l-2.06-1.17c1.08-1.5,2.72-2.26,4.93-2.26c3.01,0,4.71,1.31,4.71,3.43
			c0,0,0,8.36,0,8.38h-2.7L236.49,75.1z M232.22,72.67c0,0.77,0.49,1.5,1.37,1.5c0.96,0,1.89-0.4,2.82-1.22v-2.74
			C233.57,70.56,232.22,71.3,232.22,72.67"/>
		<path class="st1" d="M241.86,64.85l2.52-0.35l0.28,1.37c1.42-1.04,2.55-1.59,3.97-1.59c2.38,0,3.61,1.26,3.61,3.76v8.05h-3.04
			v-7.52c0-1.41-0.37-2.06-1.47-2.06c-0.91,0-1.81,0.42-2.84,1.28v8.29h-3.02V64.85z"/>
		<path class="st1" d="M272.39,76.32c-3.41,0-5.44-2.19-5.44-6c0-3.85,2.06-6.04,5.39-6.04c3.34,0,5.32,2.13,5.32,5.89
			c0,0.2-0.03,0.4-0.03,0.59h-7.7c0.02,2.19,0.93,3.3,2.72,3.3c1.15,0,1.91-0.46,2.62-1.48l2.23,1.24
			C276.53,75.45,274.77,76.32,272.39,76.32 M274.67,68.8c0-1.55-0.88-2.45-2.33-2.45c-1.37,0-2.23,0.88-2.35,2.45H274.67z"/>
		<path class="st1" d="M214.12,76.44c-3.01,0-5.72-1.92-5.72-6.1c0-4.18,2.71-6.1,5.72-6.1c3.01,0,5.72,1.92,5.72,6.1
			C219.84,74.53,217.13,76.44,214.12,76.44 M214.12,66.81c-2.27,0-2.69,2.05-2.69,3.53c0,1.48,0.42,3.53,2.69,3.53
			c2.27,0,2.69-2.05,2.69-3.53C216.82,68.86,216.39,66.81,214.12,66.81"/>
		<path class="st1" d="M221.93,64.54h2.89v1.36c0.55-0.73,1.91-1.6,3.19-1.6c0.12,0,0.27,0,0.39,0.02v2.85h-0.15
			c-1.32,0-2.77,0.2-3.24,1.23v7.69h-3.09V64.54z"/>
		<path class="st1" d="M259.69,73.62c2.31-0.02,2.5-2.37,2.5-3.9c0-1.81-0.89-3.28-2.52-3.28c-1.1,0-2.32,0.8-2.32,3.4
			C257.35,71.28,257.45,73.64,259.69,73.62 M265.11,64.5v10.95c0,1.93-0.15,5.11-5.66,5.15c-2.27,0.01-4.38-0.89-4.8-2.88l3-0.48
			c0.13,0.57,0.47,1.13,2.18,1.13c1.58,0,2.33-0.75,2.33-2.56v-1.34l-0.04-0.04c-0.48,0.86-1.22,1.68-2.99,1.68
			c-2.69,0-4.82-1.87-4.82-5.78c0-3.87,2.19-6.03,4.65-6.03c2.31,0,3.16,1.05,3.36,1.6l-0.04,0l0.25-1.38H265.11z"/>
	</g>
	<path class="st1" d="M278.86,60.67h-1.2v3.31h-0.63v-3.31h-1.2v-0.51h3.02V60.67z M283.84,63.98h-0.63v-3.19h-0.02l-1.25,3.19h-0.4
		l-1.25-3.19h-0.02v3.19h-0.63v-3.82h0.97l1.14,2.9l1.12-2.9h0.97V63.98z"/>
</g>
</svg>
