<?xml version="1.0" encoding="utf-8"?>
<!-- Generator: Adobe Illustrator 23.0.1, SVG Export Plug-In . SVG Version: 6.00 Build 0)  -->
<svg version="1.1" id="Layer_1" xmlns="http://www.w3.org/2000/svg" xmlns:xlink="http://www.w3.org/1999/xlink" x="0px" y="0px"
	 viewBox="0 0 178.74 60.36" style="enable-background:new 0 0 178.74 60.36;" xml:space="preserve">
<g>
	<g>
		<path d="M0,0.41h5.65c2.51,0,4.44,0.57,5.79,1.71c1.35,1.14,2.03,2.76,2.03,4.86c0,2.1-0.66,3.73-1.99,4.87
			c-1.33,1.14-3.22,1.71-5.67,1.71H0V0.41z M1.97,11.92h3.68c1.82,0,3.22-0.43,4.21-1.28c0.99-0.85,1.48-2.07,1.48-3.65
			c0-1.58-0.51-2.79-1.52-3.65C8.81,2.48,7.36,2.05,5.49,2.05H1.97V11.92z"/>
		<path d="M16.44,13.56V0.41h1.97v13.15H16.44z"/>
		<path d="M22.02,13.56V0.41h10.39v1.64H24V5.8h7.41v1.48H24v4.64h8.55v1.64H22.02z"/>
		<path d="M45.44,13.56L39.2,8.05h-1.81v5.51h-1.97V0.41h6.74c1.63,0,2.89,0.33,3.77,0.99c0.88,0.66,1.32,1.59,1.32,2.79
			c0,1.24-0.48,2.19-1.45,2.86s-2.35,1-4.13,1l6.33,5.51H45.44z M37.39,6.49h4.6c1.01,0,1.78-0.19,2.32-0.58
			c0.54-0.39,0.81-0.95,0.81-1.67c0-0.7-0.27-1.24-0.81-1.62s-1.31-0.57-2.31-0.57h-4.6V6.49z"/>
		<path d="M48.24,13.56L54.4,0.41h2.47l6.16,13.15h-2.05l-1.64-3.62h-7.4l-1.64,3.62H48.24z M58.59,8.3l-2.96-6.57L52.68,8.3H58.59z
			"/>
		<path d="M70.59,0.41h5.65c2.51,0,4.44,0.57,5.79,1.71c1.35,1.14,2.03,2.76,2.03,4.86c0,2.1-0.66,3.73-1.99,4.87
			c-1.33,1.14-3.22,1.71-5.67,1.71h-5.82V0.41z M72.56,11.92h3.68c1.82,0,3.22-0.43,4.21-1.28c0.99-0.85,1.48-2.07,1.48-3.65
			c0-1.58-0.51-2.79-1.52-3.65c-1.01-0.85-2.46-1.28-4.33-1.28h-3.52V11.92z"/>
		<path d="M100.24,1.82c1.38,1.21,2.07,2.93,2.07,5.16s-0.69,3.96-2.07,5.17c-1.38,1.21-3.35,1.82-5.9,1.82
			c-2.55,0-4.52-0.61-5.9-1.82c-1.38-1.21-2.07-2.93-2.07-5.17s0.69-3.96,2.07-5.17C89.82,0.61,91.79,0,94.34,0
			C96.9,0,98.86,0.61,100.24,1.82z M90.02,3.04c-1.01,0.92-1.51,2.24-1.51,3.94c0,1.71,0.51,3.03,1.52,3.95
			c1.01,0.93,2.45,1.39,4.31,1.39c1.86,0,3.3-0.46,4.31-1.39c1.01-0.93,1.52-2.24,1.52-3.95c0-1.71-0.51-3.03-1.52-3.95
			s-2.45-1.39-4.31-1.39C92.48,1.64,91.04,2.11,90.02,3.04z"/>
		<path d="M122.16,7.45c0.69,0.64,1.03,1.47,1.03,2.49c0,1.29-0.56,2.29-1.67,2.98s-2.69,1.04-4.74,1.04c-2.09,0-3.72-0.4-4.87-1.2
			s-1.75-1.93-1.78-3.4h2.3c0.02,0.94,0.41,1.67,1.17,2.19c0.76,0.52,1.82,0.77,3.19,0.77c1.37,0,2.42-0.21,3.16-0.62
			c0.74-0.41,1.11-1,1.11-1.77c0-0.55-0.22-1-0.67-1.36c-0.44-0.36-1.07-0.59-1.88-0.7l-4.36-0.58c-1.16-0.15-2.05-0.54-2.68-1.17
			c-0.63-0.63-0.94-1.44-0.94-2.45c0-1.18,0.51-2.1,1.54-2.74c1.02-0.64,2.48-0.96,4.38-0.96c2.02,0,3.58,0.36,4.68,1.07
			c1.11,0.71,1.68,1.73,1.73,3.04h-2.14c-0.02-0.79-0.41-1.4-1.15-1.82c-0.75-0.43-1.79-0.64-3.12-0.64c-1.21,0-2.14,0.18-2.79,0.53
			c-0.66,0.36-0.99,0.86-0.99,1.52c0,0.54,0.19,0.98,0.58,1.32c0.38,0.35,0.93,0.56,1.64,0.65l4.36,0.58
			C120.5,6.41,121.48,6.81,122.16,7.45z"/>
		<path d="M130.67,13.56l-6.41-13.15h2.05l5.51,11.83l5.51-11.83h2.05l-6.41,13.15H130.67z"/>
		<path d="M141.19,13.56V0.41h10.39v1.64h-8.42V5.8h7.41v1.48h-7.41v4.64h8.55v1.64H141.19z"/>
		<path d="M153.1,2.05V0.41h12.16v1.64h-5.09v11.51h-1.97V2.05H153.1z"/>
		<path d="M163.95,13.56l6.16-13.15h2.46l6.16,13.15h-2.05l-1.64-3.62h-7.4L166,13.56H163.95z M174.3,8.3l-2.96-6.57l-2.96,6.57
			H174.3z"/>
	</g>
	<g>
		<path d="M88.47,31.01c36.34,0,65.79,6.57,65.79,14.68c0,8.11-29.46,14.68-65.79,14.68c-36.33,0-65.79-6.57-65.79-14.68
			C22.68,37.58,52.13,31.01,88.47,31.01z"/>
	</g>
</g>
</svg>
